<svg width="45" height="54" viewBox="0 0 45 54" fill="none" xmlns="http://www.w3.org/2000/svg">
<g clip-path="url(#clip0)">
<path d="M44.1581 0C44.1581 0 26.4781 3.44 22.0781 23.12V54C42.8781 48.96 44.0781 25.36 44.1581 21.6V0Z" fill="#323F51"/>
<path d="M44.16 0H0C0 0 17.68 3.44 22.08 23.12C26.48 3.44 44.16 0 44.16 0Z" fill="#62C4BB"/>
<path d="M22.08 23.12C17.68 3.52 0 0 0 0V21.52C0.08 25.36 1.28 48.96 22.08 53.92V23.12Z" fill="black"/>
<path d="M7.03938 13.5198C4.79937 15.7598 4.79937 19.2798 7.03938 21.5198C9.19938 23.7598 12.7994 23.7598 15.0394 21.5198C17.2794 19.3598 17.2794 15.7598 15.0394 13.5198C12.7994 11.2798 9.27938 11.2798 7.03938 13.5198Z" fill="white"/>
<path d="M11.2804 18.5588C10.7204 18.6388 10.1604 18.3188 10.0004 17.6788C9.92036 17.1188 10.2404 16.5588 10.8804 16.3988C11.4404 16.3188 12.0004 16.6388 12.1604 17.2788C12.1604 17.8388 11.8404 18.3988 11.2804 18.5588Z" fill="black"/>
<path d="M29.1214 13.5198C26.8814 15.7598 26.8814 19.2798 29.1214 21.5198C31.3614 23.7598 34.8814 23.7598 37.1214 21.5198C39.3614 19.3598 39.3614 15.7598 37.1214 13.5198C34.8814 11.2798 31.2814 11.2798 29.1214 13.5198Z" fill="white"/>
<path d="M33.2804 18.5588C32.7204 18.6388 32.1604 18.3188 32.0004 17.6788C31.9204 17.1188 32.2404 16.5588 32.8804 16.3988C33.4404 16.3188 34.0004 16.6388 34.1604 17.2788C34.3204 17.9188 33.8404 18.3988 33.2804 18.5588Z" fill="black"/>
</g>
<defs>
<clipPath id="clip0">
<rect width="44.16" height="54" fill="white"/>
</clipPath>
</defs>
</svg>
